<svg width="34" height="34" viewBox="0 0 34 34" fill="none" xmlns="http://www.w3.org/2000/svg">
<path d="M30.9187 17.2125C30.9187 9.45625 24.65 3.29375 17 3.29375C9.24374 3.29375 3.08124 9.5625 3.08124 17.2125C3.08124 21.7813 5.31249 25.8187 8.71249 28.3688L6.79999 30.0687C6.48124 30.3875 6.37499 30.9187 6.69374 31.2375C7.01249 31.5562 7.54374 31.6625 7.86249 31.3437L10.2 29.4313C12.2187 30.6 14.5562 31.2375 17.1062 31.2375C19.7625 31.2375 22.2062 30.4937 24.225 29.2187C24.225 29.2187 24.225 29.2187 24.3312 29.325L26.775 31.3437C27.0937 31.6625 27.625 31.5562 27.9437 31.2375C28.2625 30.9187 28.1562 30.3875 27.8375 30.0687L25.7125 28.2625C28.7937 25.7125 30.9187 21.675 30.9187 17.2125ZM17 29.5375C10.2 29.5375 4.67499 24.0125 4.67499 17.2125C4.67499 10.4125 10.2 4.8875 17 4.8875C23.8 4.8875 29.325 10.4125 29.325 17.2125C29.325 24.0125 23.8 29.5375 17 29.5375Z" fill="#007CEE"/>
<path d="M6.90626 3.1875C6.58751 2.86875 6.05626 2.86875 5.73751 3.1875L1.80626 7.11875C1.48751 7.4375 1.48751 7.96875 1.80626 8.2875C2.12501 8.60625 2.65626 8.60625 2.97501 8.2875L6.90626 4.35625C7.22501 4.0375 7.22501 3.50625 6.90626 3.1875Z" fill="#007CEE"/>
<path d="M32.1937 7.0125L28.2625 3.1875C27.9437 2.86875 27.4125 2.86875 27.0937 3.1875C26.775 3.50625 26.775 4.0375 27.0937 4.35625L31.025 8.18125C31.3437 8.5 31.875 8.5 32.1937 8.18125C32.5125 7.8625 32.5125 7.33125 32.1937 7.0125Z" fill="#007CEE"/>
<path d="M23.4813 9.9875L18.7 14.2375C18.7 14.2375 18.7 14.3438 18.5938 14.3438C18.1688 14.2375 17.85 14.1313 17.425 14.1313C17 14.1313 16.6813 14.2375 16.3625 14.3438C16.3625 14.2375 16.2563 14.2375 16.2563 14.1313L13.175 11.3688C12.8563 11.05 12.325 11.05 12.0063 11.475C11.6875 11.7938 11.6875 12.325 12.1125 12.6438L15.0875 15.3C14.5563 15.9375 14.1313 16.6813 14.1313 17.6375C14.1313 19.4438 15.6188 21.0375 17.5313 21.0375C19.3375 21.0375 20.9313 19.55 20.9313 17.6375C20.9313 16.7875 20.6125 16.0438 20.0813 15.4063L24.7563 11.2625C25.075 10.9438 25.075 10.4125 24.8625 10.0938C24.3313 9.775 23.8 9.775 23.4813 9.9875ZM17.425 19.3375C16.4688 19.3375 15.725 18.5938 15.725 17.6375C15.725 16.6813 16.4688 15.9375 17.425 15.9375C18.3813 15.9375 19.125 16.6813 19.125 17.6375C19.125 18.4875 18.3813 19.3375 17.425 19.3375Z" fill="#007CEE"/>
</svg>
